<svg width="1170" height="90" viewBox="0 0 1170 90" fill="none" xmlns="http://www.w3.org/2000/svg">
<g clip-path="url(#clip0_437_279)">
<rect width="1170" height="90" fill="url(#paint0_linear_437_279)"/>
<foreignObject x="149.297" y="67.8792" width="154.164" height="154.164"><div xmlns="http://www.w3.org/1999/xhtml" style="backdrop-filter:blur(5.73px);clip-path:url(#bgblur_1_437_279_clip_path);height:100%;width:100%"></div></foreignObject><path data-figma-bg-blur-radius="11.4673" d="M198.104 210.02L268.116 202.32C282.587 200.728 293.028 187.706 291.437 173.236L283.737 103.223C282.145 88.7521 269.124 78.3111 254.653 79.9025L184.641 87.6024C170.17 89.1942 159.729 102.216 161.32 116.686L169.02 186.699C170.612 201.17 183.633 211.611 198.104 210.02Z" fill="url(#paint1_linear_437_279)" stroke="url(#paint2_linear_437_279)" stroke-width="0.791658"/>
<foreignObject x="99.2276" y="31.0327" width="163.812" height="163.812"><div xmlns="http://www.w3.org/1999/xhtml" style="backdrop-filter:blur(5.73px);clip-path:url(#bgblur_2_437_279_clip_path);height:100%;width:100%"></div></foreignObject><path data-figma-bg-blur-radius="11.4673" d="M164.641 182.107L232.253 162.367C246.331 158.256 254.412 143.51 250.302 129.432L230.561 61.8199C226.451 47.7411 211.705 39.6601 197.626 43.7706L130.015 63.511C115.936 67.6219 107.855 82.3674 111.965 96.4463L131.706 164.058C135.816 178.137 150.562 186.218 164.641 182.107Z" fill="url(#paint3_linear_437_279)" stroke="url(#paint4_linear_437_279)" stroke-width="0.399064"/>
<foreignObject x="47.6699" y="13.8953" width="170.796" height="170.796"><div xmlns="http://www.w3.org/1999/xhtml" style="backdrop-filter:blur(5.73px);clip-path:url(#bgblur_3_437_279_clip_path);height:100%;width:100%"></div></foreignObject><path data-figma-bg-blur-radius="11.4673" d="M128.837 170.275L191.993 139.094C205.144 132.601 210.542 116.676 204.049 103.525L172.868 40.3679C166.375 27.2168 150.45 21.8192 137.299 28.312L74.1422 59.4932C60.9912 65.9863 55.5935 81.9111 62.0862 95.0623L93.2675 158.219C99.7605 171.37 115.685 176.768 128.837 170.275Z" fill="url(#paint5_linear_437_279)" stroke="url(#paint6_linear_437_279)" stroke-width="0.399064"/>
<foreignObject x="-2.45017" y="-1.80564" width="174.907" height="174.907"><div xmlns="http://www.w3.org/1999/xhtml" style="backdrop-filter:blur(5.73px);clip-path:url(#bgblur_4_437_279_clip_path);height:100%;width:100%"></div></foreignObject><path data-figma-bg-blur-radius="11.4673" d="M93.162 156.286L149.945 114.611C161.768 105.933 164.319 89.3131 155.641 77.4891L113.966 20.7065C105.288 8.88267 88.6681 6.33235 76.8441 15.0102L20.0615 56.6847C8.2378 65.3629 5.68737 81.983 14.3652 93.807L56.0397 150.59C64.7178 162.413 81.338 164.964 93.162 156.286Z" fill="url(#paint7_linear_437_279)" fill-opacity="0.3" stroke="url(#paint8_linear_437_279)" stroke-width="0.399064"/>
<foreignObject x="-48.089" y="-5.9586" width="168.174" height="168.174"><div xmlns="http://www.w3.org/1999/xhtml" style="backdrop-filter:blur(3.77px);clip-path:url(#bgblur_5_437_279_clip_path);height:100%;width:100%"></div></foreignObject><path data-figma-bg-blur-radius="7.53868" d="M56.2989 146.276L104.982 95.3748C115.119 84.7754 114.745 67.9648 104.146 57.8273L53.2441 9.14413C42.6447 -0.993134 25.8341 -0.618646 15.6967 9.98056L-32.9865 60.8822C-43.1237 71.4816 -42.7493 88.2922 -32.1501 98.4296L18.7515 147.113C29.3509 157.25 46.1615 156.875 56.2989 146.276Z" fill="url(#paint9_linear_437_279)" stroke="url(#paint10_linear_437_279)" stroke-width="0.399064"/>
<foreignObject x="-100.076" y="-16.4602" width="174.139" height="174.138"><div xmlns="http://www.w3.org/1999/xhtml" style="backdrop-filter:blur(5.73px);clip-path:url(#bgblur_6_437_279_clip_path);height:100%;width:100%"></div></foreignObject><path data-figma-bg-blur-radius="11.4673" d="M18.6565 134.088L57.7611 75.5055C65.8436 63.397 62.5799 47.0287 50.4717 38.9459L-8.1104 -0.158709C-20.2189 -8.24122 -36.5872 -4.97762 -44.6699 7.13078L-83.7746 65.7128C-91.8569 77.8214 -88.5934 94.1896 -76.4851 102.272L-17.903 141.377C-5.79455 149.459 10.5738 146.196 18.6565 134.088Z" fill="url(#paint11_linear_437_279)" stroke="url(#paint12_linear_437_279)" stroke-width="0.791658"/>
<g filter="url(#filter6_f_437_279)">
<circle cx="74.3234" cy="74.3234" r="74.3234" transform="matrix(-0.999868 0.0162727 0.0162727 0.999868 292.833 110.026)" fill="#1E61D0"/>
</g>
<g filter="url(#filter7_f_437_279)">
<circle cx="103.944" cy="103.944" r="103.944" transform="matrix(-0.999868 0.0162727 0.0162727 0.999868 176.628 41.9048)" fill="#EA343D" fill-opacity="0.9"/>
</g>
<g filter="url(#filter8_f_437_279)">
<circle cx="99.9922" cy="99.9922" r="99.9922" transform="matrix(-0.999868 0.0162727 0.0162727 0.999868 -18.3135 34.0459)" fill="#EA343D" fill-opacity="0.9"/>
</g>
<g filter="url(#filter9_f_437_279)">
<circle cx="88.2997" cy="88.2997" r="88.2997" transform="matrix(-0.999868 0.0162727 0.0162727 0.999868 311.398 142.635)" fill="#1E61D0"/>
</g>
<g filter="url(#filter10_f_437_279)">
<circle cx="169.835" cy="169.835" r="169.835" transform="matrix(-0.831704 -0.555219 -0.555219 0.831704 540.096 158.591)" fill="#1E61D0"/>
</g>
<g filter="url(#filter11_f_437_279)">
<circle cx="125.931" cy="125.931" r="125.931" transform="matrix(-0.831704 -0.555219 -0.555219 0.831704 390.763 94.9053)" fill="#1E61D0"/>
</g>
<g filter="url(#filter12_f_437_279)">
<circle cx="191.154" cy="191.154" r="191.154" transform="matrix(-0.831704 -0.555219 -0.555219 0.831704 1405.23 -97.7351)" fill="#1E61D0"/>
</g>
</g>
<defs>
<clipPath id="bgblur_1_437_279_clip_path" transform="translate(-149.297 -67.8792)"><path d="M198.104 210.02L268.116 202.32C282.587 200.728 293.028 187.706 291.437 173.236L283.737 103.223C282.145 88.7521 269.124 78.3111 254.653 79.9025L184.641 87.6024C170.17 89.1942 159.729 102.216 161.32 116.686L169.02 186.699C170.612 201.17 183.633 211.611 198.104 210.02Z"/>
</clipPath><clipPath id="bgblur_2_437_279_clip_path" transform="translate(-99.2276 -31.0327)"><path d="M164.641 182.107L232.253 162.367C246.331 158.256 254.412 143.51 250.302 129.432L230.561 61.8199C226.451 47.7411 211.705 39.6601 197.626 43.7706L130.015 63.511C115.936 67.6219 107.855 82.3674 111.965 96.4463L131.706 164.058C135.816 178.137 150.562 186.218 164.641 182.107Z"/>
</clipPath><clipPath id="bgblur_3_437_279_clip_path" transform="translate(-47.6699 -13.8953)"><path d="M128.837 170.275L191.993 139.094C205.144 132.601 210.542 116.676 204.049 103.525L172.868 40.3679C166.375 27.2168 150.45 21.8192 137.299 28.312L74.1422 59.4932C60.9912 65.9863 55.5935 81.9111 62.0862 95.0623L93.2675 158.219C99.7605 171.37 115.685 176.768 128.837 170.275Z"/>
</clipPath><clipPath id="bgblur_4_437_279_clip_path" transform="translate(2.45017 1.80564)"><path d="M93.162 156.286L149.945 114.611C161.768 105.933 164.319 89.3131 155.641 77.4891L113.966 20.7065C105.288 8.88267 88.6681 6.33235 76.8441 15.0102L20.0615 56.6847C8.2378 65.3629 5.68737 81.983 14.3652 93.807L56.0397 150.59C64.7178 162.413 81.338 164.964 93.162 156.286Z"/>
</clipPath><clipPath id="bgblur_5_437_279_clip_path" transform="translate(48.089 5.9586)"><path d="M56.2989 146.276L104.982 95.3748C115.119 84.7754 114.745 67.9648 104.146 57.8273L53.2441 9.14413C42.6447 -0.993134 25.8341 -0.618646 15.6967 9.98056L-32.9865 60.8822C-43.1237 71.4816 -42.7493 88.2922 -32.1501 98.4296L18.7515 147.113C29.3509 157.25 46.1615 156.875 56.2989 146.276Z"/>
</clipPath><clipPath id="bgblur_6_437_279_clip_path" transform="translate(100.076 16.4602)"><path d="M18.6565 134.088L57.7611 75.5055C65.8436 63.397 62.5799 47.0287 50.4717 38.9459L-8.1104 -0.158709C-20.2189 -8.24122 -36.5872 -4.97762 -44.6699 7.13078L-83.7746 65.7128C-91.8569 77.8214 -88.5934 94.1896 -76.4851 102.272L-17.903 141.377C-5.79455 149.459 10.5738 146.196 18.6565 134.088Z"/>
</clipPath><filter id="filter6_f_437_279" x="68.2713" y="34.0911" width="302.916" height="302.916" filterUnits="userSpaceOnUse" color-interpolation-filters="sRGB">
<feFlood flood-opacity="0" result="BackgroundImageFix"/>
<feBlend mode="normal" in="SourceGraphic" in2="BackgroundImageFix" result="shape"/>
<feGaussianBlur stdDeviation="38.5672" result="effect1_foregroundBlur_437_279"/>
</filter>
<filter id="filter7_f_437_279" x="-158.223" y="-85.0846" width="465.223" height="465.223" filterUnits="userSpaceOnUse" color-interpolation-filters="sRGB">
<feFlood flood-opacity="0" result="BackgroundImageFix"/>
<feBlend mode="normal" in="SourceGraphic" in2="BackgroundImageFix" result="shape"/>
<feGaussianBlur stdDeviation="64.3334" result="effect1_foregroundBlur_437_279"/>
</filter>
<filter id="filter8_f_437_279" x="-340.432" y="-88.1152" width="447.534" height="447.534" filterUnits="userSpaceOnUse" color-interpolation-filters="sRGB">
<feFlood flood-opacity="0" result="BackgroundImageFix"/>
<feBlend mode="normal" in="SourceGraphic" in2="BackgroundImageFix" result="shape"/>
<feGaussianBlur stdDeviation="61.8873" result="effect1_foregroundBlur_437_279"/>
</filter>
<filter id="filter9_f_437_279" x="44.6082" y="52.4204" width="359.878" height="359.879" filterUnits="userSpaceOnUse" color-interpolation-filters="sRGB">
<feFlood flood-opacity="0" result="BackgroundImageFix"/>
<feBlend mode="normal" in="SourceGraphic" in2="BackgroundImageFix" result="shape"/>
<feGaussianBlur stdDeviation="45.8197" result="effect1_foregroundBlur_437_279"/>
</filter>
<filter id="filter10_f_437_279" x="-41.5635" y="-140.563" width="692.222" height="692.222" filterUnits="userSpaceOnUse" color-interpolation-filters="sRGB">
<feFlood flood-opacity="0" result="BackgroundImageFix"/>
<feBlend mode="normal" in="SourceGraphic" in2="BackgroundImageFix" result="shape"/>
<feGaussianBlur stdDeviation="88.1292" result="effect1_foregroundBlur_437_279"/>
</filter>
<filter id="filter11_f_437_279" x="-40.5303" y="-126.914" width="513.274" height="513.274" filterUnits="userSpaceOnUse" color-interpolation-filters="sRGB">
<feFlood flood-opacity="0" result="BackgroundImageFix"/>
<feBlend mode="normal" in="SourceGraphic" in2="BackgroundImageFix" result="shape"/>
<feGaussianBlur stdDeviation="65.3467" result="effect1_foregroundBlur_437_279"/>
</filter>
<filter id="filter12_f_437_279" x="750.558" y="-434.442" width="779.116" height="779.116" filterUnits="userSpaceOnUse" color-interpolation-filters="sRGB">
<feFlood flood-opacity="0" result="BackgroundImageFix"/>
<feBlend mode="normal" in="SourceGraphic" in2="BackgroundImageFix" result="shape"/>
<feGaussianBlur stdDeviation="99.1918" result="effect1_foregroundBlur_437_279"/>
</filter>
<linearGradient id="paint0_linear_437_279" x1="284" y1="90" x2="293.296" y2="-59.6484" gradientUnits="userSpaceOnUse">
<stop stop-color="#0E4BB3"/>
<stop offset="1" stop-color="#04245B"/>
</linearGradient>
<linearGradient id="paint1_linear_437_279" x1="221.528" y1="86.5956" x2="234.175" y2="201.591" gradientUnits="userSpaceOnUse">
<stop stop-color="#282735" stop-opacity="0"/>
<stop offset="1" stop-color="#254D90"/>
</linearGradient>
<linearGradient id="paint2_linear_437_279" x1="185.395" y1="90.6651" x2="245.784" y2="163.366" gradientUnits="userSpaceOnUse">
<stop stop-color="white" stop-opacity="0"/>
<stop offset="1" stop-color="#86A2ED"/>
</linearGradient>
<linearGradient id="paint3_linear_437_279" x1="131.344" y1="66.5847" x2="163.762" y2="177.615" gradientUnits="userSpaceOnUse">
<stop stop-color="#282735" stop-opacity="0"/>
<stop offset="1" stop-color="#86A2ED"/>
</linearGradient>
<linearGradient id="paint4_linear_437_279" x1="126.644" y1="69.9279" x2="206.749" y2="104.438" gradientUnits="userSpaceOnUse">
<stop stop-color="#282735" stop-opacity="0"/>
<stop offset="1" stop-color="#6788E2"/>
</linearGradient>
<linearGradient id="paint5_linear_437_279" x1="108.547" y1="46.1069" x2="159.763" y2="149.842" gradientUnits="userSpaceOnUse">
<stop stop-color="#282735" stop-opacity="0"/>
<stop offset="1" stop-color="#254D90"/>
</linearGradient>
<linearGradient id="paint6_linear_437_279" x1="71.9373" y1="66.3978" x2="156.818" y2="86.4731" gradientUnits="userSpaceOnUse">
<stop stop-color="#282735" stop-opacity="0"/>
<stop offset="1" stop-color="#6788E2"/>
</linearGradient>
<linearGradient id="paint7_linear_437_279" x1="24.3667" y1="62.9215" x2="90.7994" y2="152.366" gradientUnits="userSpaceOnUse">
<stop stop-color="#1253C1"/>
<stop offset="1" stop-color="#86A2ED" stop-opacity="0.5"/>
</linearGradient>
<linearGradient id="paint8_linear_437_279" x1="19.089" y1="63.8673" x2="106.166" y2="68.8983" gradientUnits="userSpaceOnUse">
<stop stop-color="#282735" stop-opacity="0"/>
<stop offset="1" stop-color="#6788E2"/>
</linearGradient>
<linearGradient id="paint9_linear_437_279" x1="31.7114" y1="74.1117" x2="126.621" y2="45.4242" gradientUnits="userSpaceOnUse">
<stop stop-color="#282735" stop-opacity="0"/>
<stop offset="1" stop-color="#CB333B"/>
</linearGradient>
<linearGradient id="paint10_linear_437_279" x1="-7.89636" y1="117.402" x2="73.2777" y2="32.5288" gradientUnits="userSpaceOnUse">
<stop stop-color="#282735" stop-opacity="0"/>
<stop offset="1" stop-color="#CB333B"/>
</linearGradient>
<linearGradient id="paint11_linear_437_279" x1="-49.4143" y1="116.908" x2="28.8004" y2="34.199" gradientUnits="userSpaceOnUse">
<stop stop-color="#282735" stop-opacity="0"/>
<stop offset="1" stop-color="#CB333B"/>
</linearGradient>
<linearGradient id="paint12_linear_437_279" x1="-49.4143" y1="116.908" x2="15.7885" y2="19.2286" gradientUnits="userSpaceOnUse">
<stop stop-color="#282735" stop-opacity="0"/>
<stop offset="1" stop-color="#CB333B"/>
</linearGradient>
<clipPath id="clip0_437_279">
<rect width="1170" height="90" fill="white"/>
</clipPath>
</defs>
</svg>
